<?xml version="1.0" ?><!DOCTYPE svg  PUBLIC '-//W3C//DTD SVG 1.1//EN'  'http://www.w3.org/Graphics/SVG/1.1/DTD/svg11.dtd'><svg height="64px" style="shape-rendering:geometricPrecision; text-rendering:geometricPrecision; image-rendering:optimizeQuality; fill-rule:evenodd; clip-rule:evenodd" version="1.1" viewBox="0 0 64 64" width="64px" xml:space="preserve" xmlns="http://www.w3.org/2000/svg" xmlns:xlink="http://www.w3.org/1999/xlink"><defs><style type="text/css">
   <![CDATA[
    .fil2 {fill:#0E6096}
    .fil0 {fill:#FFC106}
    .fil1 {fill:#FFC106;fill-rule:nonzero}
   ]]>
  </style></defs><g id="Layer_x0020_1"><g id="_866635968"><path class="fil0" d="M33.27 13.37c6.39,1.71 10.18,8.28 8.47,14.67 -0.06,0.2 -0.12,0.41 -0.18,0.61 -1.95,-0.7 -4.04,-1.09 -6.23,-1.09 -5.35,0 -10.16,2.31 -13.5,5.97 -3.01,-2.92 -4.4,-7.35 -3.23,-11.69 1.71,-6.39 8.28,-10.19 14.67,-8.47z"/><path class="fil1" d="M28.92 6.76c0,-0.69 0.56,-1.25 1.25,-1.25 0.69,0 1.25,0.56 1.25,1.25l0 1.85c0,0.69 -0.56,1.25 -1.25,1.25 -0.69,0 -1.25,-0.56 -1.25,-1.25l0 -1.85zm-8.92 3.06c-0.34,-0.6 -0.14,-1.36 0.46,-1.7 0.59,-0.34 1.36,-0.14 1.7,0.45l0.92 1.61c0.35,0.59 0.14,1.36 -0.45,1.7 -0.6,0.34 -1.36,0.13 -1.7,-0.46l-0.93 -1.6zm-6.19 7.11c-0.6,-0.35 -0.8,-1.11 -0.46,-1.7 0.34,-0.6 1.1,-0.8 1.7,-0.46l1.6 0.92c0.6,0.35 0.8,1.11 0.46,1.7 -0.34,0.6 -1.1,0.8 -1.7,0.46l-1.6 -0.92zm-1.82 9.26c-0.69,0 -1.25,-0.56 -1.25,-1.25 0,-0.69 0.56,-1.25 1.25,-1.25l1.85 0c0.69,0 1.25,0.56 1.25,1.25 0,0.69 -0.56,1.25 -1.25,1.25l-1.85 0zm3.06 8.91c-0.6,0.34 -1.36,0.14 -1.7,-0.46 -0.34,-0.59 -0.14,-1.35 0.46,-1.7l1.6 -0.92c0.6,-0.34 1.36,-0.14 1.7,0.46 0.34,0.59 0.14,1.35 -0.46,1.7l-1.6 0.92zm33.29 -11.41c0.69,0 1.25,0.56 1.25,1.25 0,0.69 -0.56,1.25 -1.25,1.25l-1.85 0c-0.69,0 -1.25,-0.56 -1.25,-1.25 0,-0.69 0.56,-1.25 1.25,-1.25l1.85 0zm-3.05 -8.92c0.59,-0.34 1.36,-0.14 1.7,0.46 0.34,0.59 0.13,1.35 -0.46,1.7l-1.61 0.92c-0.59,0.34 -1.35,0.14 -1.69,-0.46 -0.34,-0.59 -0.14,-1.35 0.45,-1.7l1.61 -0.92zm-7.11 -6.2c0.34,-0.59 1.1,-0.79 1.7,-0.45 0.59,0.34 0.8,1.1 0.45,1.7l-0.92 1.6c-0.34,0.59 -1.11,0.8 -1.7,0.46 -0.6,-0.34 -0.8,-1.11 -0.46,-1.7l0.93 -1.61z"/><path class="fil2" d="M35.33 27.56c-8.89,0 -16.3,6.36 -17.93,14.78 2.92,0.31 5.63,1.32 7.97,2.84 2.49,-1.62 5.41,-2.66 8.55,-2.9l0 12.5c0,1.09 0.56,2.06 1.46,2.73 0.8,0.6 1.89,0.98 3.06,0.98 1.17,0 2.25,-0.38 3.05,-0.98 0.91,-0.67 1.47,-1.64 1.47,-2.73 0,-0.69 -0.56,-1.25 -1.25,-1.25 -0.69,0 -1.25,0.56 -1.25,1.25 0,0.27 -0.18,0.53 -0.46,0.74 -0.38,0.29 -0.94,0.47 -1.56,0.47 -0.63,0 -1.18,-0.18 -1.56,-0.47 -0.29,-0.21 -0.46,-0.47 -0.46,-0.74l0 -12.52c3.26,0.19 6.29,1.24 8.87,2.92 2.34,-1.52 5.05,-2.53 7.97,-2.84 -1.63,-8.42 -9.04,-14.78 -17.93,-14.78z"/></g></g></svg>