<?xml version="1.0" ?><!DOCTYPE svg  PUBLIC '-//W3C//DTD SVG 1.1//EN'  'http://www.w3.org/Graphics/SVG/1.1/DTD/svg11.dtd'><svg height="64px" style="shape-rendering:geometricPrecision; text-rendering:geometricPrecision; image-rendering:optimizeQuality; fill-rule:evenodd; clip-rule:evenodd" version="1.1" viewBox="0 0 64 64" width="64px" xml:space="preserve" xmlns="http://www.w3.org/2000/svg" xmlns:xlink="http://www.w3.org/1999/xlink"><defs><style type="text/css">
   <![CDATA[
    .fil0 {fill:#0E6096}
    .fil1 {fill:#1AB5ED}
   ]]>
  </style></defs><g id="Layer_x0020_1"><g id="_744317040"><g><circle class="fil0" cx="18.54" cy="50.96" r="1.97"/><circle class="fil0" cx="25.25" cy="50.96" r="1.97"/><circle class="fil0" cx="31.97" cy="50.96" r="1.97"/><circle class="fil0" cx="38.69" cy="50.96" r="1.97"/><circle class="fil0" cx="45.4" cy="50.96" r="1.97"/></g><path class="fil0" d="M10.37 44.56c-0.2,-0.04 -0.4,-0.09 -0.59,-0.15 0.19,0.06 0.39,0.11 0.59,0.15zm-0.97 -0.28c-0.38,-0.14 -0.74,-0.3 -1.09,-0.49 0.35,0.19 0.71,0.35 1.09,0.49zm-1.09 -0.49c-1.39,-0.76 -2.54,-1.91 -3.3,-3.3 0.76,1.39 1.91,2.54 3.3,3.3zm-3.3 -3.31c-0.19,-0.35 -0.35,-0.71 -0.49,-1.09 0.14,0.38 0.3,0.74 0.49,1.09zm-0.62 -1.47c-0.06,-0.19 -0.11,-0.38 -0.16,-0.58 0.05,0.2 0.1,0.39 0.16,0.58zm7.68 -10.64c0.1,-1.49 0.42,-2.93 0.91,-4.28 -0.49,1.35 -0.8,2.79 -0.9,4.28l-0.01 0zm19.25 -13.82c1.41,-2.1 3.79,-3.47 6.51,-3.47 3.96,0 7.24,2.94 7.75,6.76 0.48,-0.06 0.96,-0.09 1.45,-0.09 6.05,0 10.95,4.9 10.95,10.95 0,1.76 -0.42,3.43 -1.16,4.91 -0.82,-0.44 -1.76,-0.68 -2.76,-0.68 -0.66,-5.15 -5.06,-9.13 -10.4,-9.13 -0.64,0 -1.27,0.06 -1.88,0.17 -1.75,-4.61 -5.64,-8.15 -10.46,-9.42z"/><path class="fil1" d="M12.22 44.77c-4.53,0 -8.2,-3.67 -8.2,-8.2 0,-4.48 3.59,-8.12 8.06,-8.2 0.53,-8 7.19,-14.33 15.32,-14.33 6.57,0 12.18,4.13 14.37,9.93 0.62,-0.11 1.25,-0.17 1.89,-0.17 5.33,0 9.74,3.98 10.4,9.13 3.27,0 5.92,2.65 5.92,5.92 0,3.22 -2.57,5.84 -5.77,5.92 -14,0.2 -27.99,0 -41.99,0z"/></g></g></svg>